# xmcd
#
# Track frame offsets:
#	150
#	10355
#	20435
#	29611
#	39388
#	46621
#	53248
#	63716
#	68822
#	73709
#	77805
#	89733
#	102382
#	110406
#	128044
#
# Disc length: 1836 seconds
#
# Revision: 1
# Processed by: cddbd v1.5.2PL0 Copyright (c) Steve Scherf et al.
# Submitted via: audiograbber 1.83.01
#
DISCID=cf072a0f
DTITLE=Salome Birnstiel - De flinki Pfiil und sis Pony
DYEAR=2008
DGENRE=Musical
TTITLE0=uuuuu, mir sind Indianer
TTITLE1=Triff grad i d' Mitti
TTITLE2=S' Tipi
TTITLE3=Ja, hüt häsch du Geburtstag
TTITLE4=Pony, ich ha di gärn
TTITLE5=Zwischenmusik
TTITLE6=Pony, wo bisch du?
TTITLE7=Schliiche
TTITLE8=Gänd eus euses Pony zrugg!
TTITLE9=Vorsicht
TTITLE10=Truurig
TTITLE11=De Tag isch verbii
TTITLE12=Pony, ich ha di gärn
TTITLE13=Mir fiired hüt
TTITLE14=Daten-CD
EXTD=Adonia Verlag, CH-4805 Brittnau
EXTT0=
EXTT1=
EXTT2=
EXTT3=
EXTT4=
EXTT5=
EXTT6=
EXTT7=
EXTT8=
EXTT9=
EXTT10=
EXTT11=
EXTT12=
EXTT13=
EXTT14=
PLAYORDER=
